<svg height="512pt" viewBox="-46 0 512 512.00324" width="512pt" xmlns="http://www.w3.org/2000/svg"><path d="m65.953125 39.570312 94.707031 38.175782c-12.949218 4.492187-23.929687 13.625-45.152344 11.171875-33.445312-3.875-69.957031 26.867187-58.488281 53.832031 11.496094 27.023438 59.101563 21.761719 79.34375-4.8125 5.929688-7.78125 13.433594-13.75 21.695313-17.265625l53.078125-22.582031 53.144531 21.417968c22.363281 9.015626 20.507812 23.921876 45.902344 34.164063 21.574218 8.695313 47.757812 5.285156 55.539062-14.019531 7.976563-19.78125-9.679687-40.304688-30.292968-48.613282-25.125-10.128906-34.679688 1.679688-56.761719-7.222656l-17.453125-7.035156 93.609375-39.824219c15.859375-6.746093 15.390625-29.214843-.339844-35.550781-4.765625-1.921875-9.996094-1.871094-14.726563.140625l-129.019531 54.886719-130.398437-52.554688c-15.980469-6.441406-31.539063 9.769532-24.898438 25.378906 2.011719 4.726563 5.746094 8.390626 10.511719 10.3125zm86.234375 67.296876c-10.652344 4.535156-20.25 12.132812-27.753906 21.980468-14.921875 19.585938-47.773438 21.75-53.613282 8.027344-5.929687-13.9375 18.792969-35.855469 42.964844-33.058594 27.945313 3.238282 42-9.289062 66.550782-18.144531l11.125 4.484375zm78.226562-42.496094c121.054688-51.007813 115.371094-50.300782 118.464844-49.050782 3.476563 1.402344 3.5625 6.355469.074219 7.835938l-107.410156 45.699219c-2.34375-.945313-7.582031-3.058594-11.128907-4.484375zm-158.929687-46.550782c2.511719-1.070312-11.769531-6.082031 201.578125 79.910157 10.738281 4.328125 22.894531 5.742187 35.164062 4.082031 6.667969-.902344 14.339844.214844 21.59375 3.140625 8.113282 3.269531 15.085938 8.597656 19.136719 14.617187 2.03125 3.015626 5.101563 8.910157 2.855469 14.476563-5.792969 14.371094-38.976562 11.644531-53.757812-7.003906-7.6875-9.699219-17.429688-17.113281-28.164063-21.445313-210.191406-85.21875-199.339844-79.136718-200.648437-82.214844-.441407-1.039062.085937-4.644531 2.242187-5.5625zm0 0"/><path d="m398.171875 255.1875c12.554687 0 22.765625-10.210938 22.765625-22.765625v-28.414063c0-12.554687-10.210938-22.769531-22.765625-22.769531h-194.414063c-4.140624 0-7.5 3.359375-7.5 7.5 0 4.144531 3.359376 7.5 7.5 7.5h194.414063c4.28125 0 7.765625 3.484375 7.765625 7.769531v28.414063c0 4.28125-3.480469 7.765625-7.765625 7.765625h-375.402344c-4.28125 0-7.769531-3.484375-7.769531-7.765625v-28.414063c0-4.285156 3.484375-7.769531 7.769531-7.769531h153.03125c4.144531 0 7.5-3.355469 7.5-7.5 0-4.140625-3.355469-7.5-7.5-7.5h-153.03125c-12.554687 0-22.769531 10.214844-22.769531 22.769531v28.414063c0 12.554687 10.214844 22.765625 22.769531 22.765625h17.71875v192.03125h-8.09375c-17.859375 0-32.394531 14.53125-32.394531 32.394531 0 17.859375 14.53125 32.390625 32.394531 32.390625h275.605469c4.140625 0 7.5-3.359375 7.5-7.5 0-4.144531-3.359375-7.5-7.5-7.5h-275.605469c-9.589843 0-17.394531-7.800781-17.394531-17.390625 0-9.589843 7.804688-17.394531 17.394531-17.394531 35.101563 0 327.003907.003906 356.152344 0 9.589844 0 17.390625 7.804688 17.390625 17.394531 0 9.589844-7.800781 17.390625-17.390625 17.390625h-52.589844c-4.144531 0-7.5 3.355469-7.5 7.5 0 4.140625 3.355469 7.5 7.5 7.5h52.589844c17.859375 0 32.390625-14.53125 32.390625-32.390625 0-17.863281-14.53125-32.394531-32.390625-32.394531h-7.496094v-192.03125zm-187.398437 179.035156-70.382813-179.035156h140.765625zm81.390624-166.035156 70.378907 179.03125h-140.761719zm-92.394531 179.035156h-140.773437l70.386718-179.035156zm-81.394531-192.035156-62.886719 159.960938v-159.960938zm247.675781 159.953125-62.878906-159.953125h62.878906zm0 0"/></svg>