<?xml version="1.0"?>
<svg xmlns="http://www.w3.org/2000/svg" xmlns:xlink="http://www.w3.org/1999/xlink" version="1.1" id="Capa_1" x="0px" y="0px" viewBox="0 0 445.1 445.1" style="enable-background:new 0 0 445.1 445.1;" xml:space="preserve" width="512px" height="512px"><g><g>
	<g>
		<path d="M445,126.7c0-20-16.2-36.2-36.2-36.2H36.2c-20,0-36.2,16.2-36.2,36.2v191.7c0,20,16.2,36.2,36.2,36.2h372.7    c20,0,36.2-16.2,36.2-36.2V126.7H445z M60,334.5H35.7c-8.9,0-15.7-7.4-15.7-16.3V169.5h21v98.9c-0.2,5.4,4.1,9.9,9.5,10.1    c0.1,0,0.1,0,0.2,0H60V334.5z M136,334.5H80v-56h9.5c5.5,0,10.5-4.6,10.5-10.1v-98.9h17v98.9c0,5.5,4.1,10.1,9.6,10.1h9.4V334.5z     M61,258.5v-89h19v89H61z M155,258.5h-18v-89h18V258.5z M212,334.5h-56v-56h9.5c5.5,0,9.5-4.6,9.5-10.1v-98.9h18v98.9    c0,5.5,4.1,10.1,9.6,10.1h9.4V334.5z M231,258.5h-18v-89h18V258.5z M288,334.5h-56v-56h9.4c5.5,0,9.6-4.6,9.6-10.1v-98.9h18v98.9    c0,5.5,4,10.1,9.5,10.1h9.5V334.5z M307,258.5h-18v-89h18V258.5z M364,334.5h-56v-56h9.4c5.5,0,9.6-4.6,9.6-10.1v-98.9h17v98.9    c0,5.5,5,10.1,10.5,10.1h9.5V334.5z M383,258.5h-19v-89h19V258.5z M424,318.2c0,8.9-6.8,16.3-15.7,16.3H384v-56h9.3    c5.4-0.1,9.7-4.5,9.7-9.9c0-0.1,0-0.1,0-0.2v-98.9h21V318.2z M424,126.4v23.1H20v-23.1c-0.2-8.6,6.6-15.7,15.2-15.9    c0.2,0,0.3,0,0.5,0h372.6c8.6-0.1,15.6,6.8,15.7,15.4C424,126.1,424,126.2,424,126.4z" data-original="#000000" class="active-path" data-old_color="#000000" fill="#ED7348"/>
	</g>
</g></g> </svg>
