<?xml version="1.0"?>
<svg xmlns="http://www.w3.org/2000/svg" xmlns:xlink="http://www.w3.org/1999/xlink" version="1.1" id="Layer_1" x="0px" y="0px" viewBox="0 0 482.485 482.485" style="enable-background:new 0 0 482.485 482.485;" xml:space="preserve" width="512px" height="512px" class=""><g><path style="fill:#44C4A1;" d="M55.718,0.602c-30.72,0-55.416,24.696-55.416,55.416v370.447c0,30.72,24.696,55.416,55.416,55.416  h185.525V0H55.718V0.602z" data-original="#44C4A1"/><path style="fill:#3EA69B" d="M426.767,0.602H241.242v481.882h185.525c30.72,0,55.416-24.696,55.416-55.416V56.019  C482.184,25.299,457.487,0.602,426.767,0.602z" data-original="#3EA69B" class="active-path"/><path style="fill:#FFFFFF;" d="M162.334,112.038V337.92c-11.445-2.409-24.696-2.409-37.948,1.807  c-31.322,9.638-51.802,34.936-45.176,56.621c6.626,22.287,37.346,32.527,69.271,22.889c27.708-8.433,46.984-28.913,46.381-48.791  l0,0V196.969l46.381-13.854V95.172L162.334,112.038z" data-original="#FFFFFF"/><path style="fill:#EBF0F3" d="M241.242,95.172v88.546l131.313-38.551v140.951c-11.445-2.409-24.696-2.409-37.948,1.807  c-31.322,9.638-51.802,34.936-45.176,56.621c6.626,22.287,37.346,32.527,69.271,22.889c27.708-8.433,46.984-28.913,46.381-48.791  l0,0V60.235L241.242,95.172z" data-original="#EBF0F3" class=""/></g> </svg>
