<?xml version="1.0"?>
<svg xmlns="http://www.w3.org/2000/svg" height="512px" viewBox="-80 0 480 480" width="512px"><g><path d="m269.65625 2.34375c-1.5-1.5-3.535156-2.34375-5.65625-2.34375h-256c-4.417969 0-8 3.582031-8 8v464c0 4.417969 3.582031 8 8 8h304c4.417969 0 8-3.582031 8-8v-416c0-2.121094-.84375-4.15625-2.34375-5.65625zm2.34375 24.96875 20.6875 20.6875h-20.6875zm-256 436.6875v-448h240v40c0 4.417969 3.582031 8 8 8h40v400zm0 0" data-original="#000000" class="active-path" data-old_color="#000000" fill="#F6F7EB"/><path d="m152 196.945312v-38.394531l24-4.789062v25.292969l-11.574219 5.785156 7.148438 14.320312 20.425781-10.214844v-54.707031l-56 11.210938v41.605469l-11.574219 5.785156 7.148438 14.320312zm0 0" data-original="#000000" class="active-path" data-old_color="#000000" fill="#F6F7EB"/><path d="m220.425781 256.839844 7.148438 14.320312 20.425781-10.214844v-54.707031l-56 11.210938v41.605469l-11.574219 5.785156 7.148438 14.320312 20.425781-10.214844v-38.394531l24-4.789062v25.292969zm0 0" data-original="#000000" class="active-path" data-old_color="#000000" fill="#F6F7EB"/><path d="m80 251.054688-11.574219 5.785156 7.148438 14.320312 20.425781-10.214844v-32l11.574219-5.785156-7.148438-14.320312-20.425781 10.214844zm0 0" data-original="#000000" class="active-path" data-old_color="#000000" fill="#F6F7EB"/><path d="m104 40h-64v64h64zm-16 48h-32v-32h32zm0 0" data-original="#000000" class="active-path" data-old_color="#000000" fill="#F6F7EB"/><path d="m128 48h96v16h-96zm0 0" data-original="#000000" class="active-path" data-old_color="#000000" fill="#F6F7EB"/><path d="m32 152h88v16h-88zm0 0" data-original="#000000" class="active-path" data-old_color="#000000" fill="#F6F7EB"/><path d="m208 152h80v16h-80zm0 0" data-original="#000000" class="active-path" data-old_color="#000000" fill="#F6F7EB"/><path d="m32 184h88v16h-88zm0 0" data-original="#000000" class="active-path" data-old_color="#000000" fill="#F6F7EB"/><path d="m208 184h80v16h-80zm0 0" data-original="#000000" class="active-path" data-old_color="#000000" fill="#F6F7EB"/><path d="m32 216h40v16h-40zm0 0" data-original="#000000" class="active-path" data-old_color="#000000" fill="#F6F7EB"/><path d="m120 216h64v16h-64zm0 0" data-original="#000000" class="active-path" data-old_color="#000000" fill="#F6F7EB"/><path d="m256 216h32v16h-32zm0 0" data-original="#000000" class="active-path" data-old_color="#000000" fill="#F6F7EB"/><path d="m164.425781 352.839844 7.148438 14.320312 20.425781-10.214844v-54.707031l-56 11.210938v41.605469l-11.574219 5.785156 7.148438 14.320312 20.425781-10.214844v-38.394531l24-4.789062v25.292969zm0 0" data-original="#000000" class="active-path" data-old_color="#000000" fill="#F6F7EB"/><path d="m192 427.054688-11.574219 5.785156 7.148438 14.320312 20.425781-10.214844v-38.394531l24-4.789062v25.292969l-11.574219 5.785156 7.148438 14.320312 20.425781-10.214844v-54.707031l-56 11.210938zm0 0" data-original="#000000" class="active-path" data-old_color="#000000" fill="#F6F7EB"/><path d="m80 387.054688v32l-11.574219 5.785156 7.148438 14.320312 20.425781-10.214844v-32l11.574219-5.785156-7.148438-14.320312zm0 0" data-original="#000000" class="active-path" data-old_color="#000000" fill="#F6F7EB"/><path d="m32 320h88v16h-88zm0 0" data-original="#000000" class="active-path" data-old_color="#000000" fill="#F6F7EB"/><path d="m208 320h80v16h-80zm0 0" data-original="#000000" class="active-path" data-old_color="#000000" fill="#F6F7EB"/><path d="m32 352h88v16h-88zm0 0" data-original="#000000" class="active-path" data-old_color="#000000" fill="#F6F7EB"/><path d="m208 352h80v16h-80zm0 0" data-original="#000000" class="active-path" data-old_color="#000000" fill="#F6F7EB"/><path d="m32 384h40v16h-40zm0 0" data-original="#000000" class="active-path" data-old_color="#000000" fill="#F6F7EB"/><path d="m120 384h64v16h-64zm0 0" data-original="#000000" class="active-path" data-old_color="#000000" fill="#F6F7EB"/><path d="m256 384h32v16h-32zm0 0" data-original="#000000" class="active-path" data-old_color="#000000" fill="#F6F7EB"/><path d="m128 80h32v16h-32zm0 0" data-original="#000000" class="active-path" data-old_color="#000000" fill="#F6F7EB"/><path d="m176 80h16v16h-16zm0 0" data-original="#000000" class="active-path" data-old_color="#000000" fill="#F6F7EB"/><path d="m208 80h32v16h-32zm0 0" data-original="#000000" class="active-path" data-old_color="#000000" fill="#F6F7EB"/></g> </svg>
