<svg height="496pt" viewBox="0 0 496 496" width="496pt" xmlns="http://www.w3.org/2000/svg"><path d="m464 160v-160h-168c-20.382812 0-38.199219 10.984375-48 27.304688-9.800781-16.320313-27.617188-27.304688-48-27.304688h-168v160h-32v304h208.808594c3.71875 18.230469 19.871094 32 39.191406 32s35.480469-13.769531 39.191406-32h208.808594v-304zm-168-144h152v352h-77.632812c-44.742188 0-86.558594 20.289062-114.367188 54.183594v-366.183594c0-22.054688 17.945312-40 40-40zm-232 368h61.632812c34.480469 0 66.992188 13.527344 91.207032 36.6875-29.167969-13.558594-60.929688-20.6875-93.664063-20.6875h-59.175781zm368 0v16h-59.175781c-32.726563 0-64.488281 7.128906-93.65625 20.6875 24.207031-23.160156 56.71875-36.6875 91.199219-36.6875zm-384-368h152c22.054688 0 40 17.945312 40 40v366.183594c-27.808594-33.894532-69.625-54.183594-114.367188-54.183594h-77.632812zm432 432h-208v8c0 13.230469-10.769531 24-24 24s-24-10.769531-24-24v-8h-208v-272h16v208h16v32h75.175781c43.34375 0 84.894531 13.320312 120.167969 38.503906l4.65625 3.328125 4.648438-3.320312c35.273437-25.191407 76.832031-38.511719 120.175781-38.511719h75.175781v-32h16v-208h16zm0 0"/><path d="m160 312v-56c26.472656 0 48-21.527344 48-48s-21.527344-48-48-48v-44.785156l33.304688-21.40625c9.199218-5.914063 14.695312-15.976563 14.695312-26.914063v-2.894531c0-17.648438-14.351562-32-32-32s-32 14.351562-32 32v42.488281l-31.816406 20.457031c-20.152344 12.949219-32.183594 35-32.183594 58.957032 0 36.59375 28.191406 66.738281 64 69.832031v56.265625c0 13.230469-10.769531 24-24 24s-24-10.769531-24-24c0-4.414062 3.585938-8 8-8s8 3.585938 8 8v8h16v-8c0-13.230469-10.769531-24-24-24s-24 10.769531-24 24c0 22.054688 17.945312 40 40 40s40-17.945312 40-40zm0-248c0-8.824219 7.175781-16 16-16s16 7.175781 16 16v2.894531c0 5.472657-2.753906 10.496094-7.351562 13.464844l-24.648438 15.839844zm0 112c17.648438 0 32 14.351562 32 32s-14.351562 32-32 32zm-16-13.257812c-18.625 6.601562-32 24.402343-32 45.257812h16c0-11.824219 6.449219-22.167969 16-27.703125v59.359375c-26.96875-3.03125-48-25.984375-48-53.761719 0-18.496093 9.289062-35.503906 24.839844-45.503906l23.160156-14.886719zm0 0"/><path d="m432 32h-160v104h160zm-16 88h-128v-72h128zm0 0"/><path d="m304 272c17.945312 0 32-10.535156 32-24v-96h-16v75.230469c-4.695312-2-10.097656-3.230469-16-3.230469-17.945312 0-32 10.535156-32 24s14.054688 24 32 24zm0-32c9.769531 0 16 4.734375 16 8s-6.230469 8-16 8-16-4.734375-16-8 6.230469-8 16-8zm0 0"/><path d="m400 232c-17.945312 0-32 10.535156-32 24s14.054688 24 32 24c5.902344 0 11.304688-1.230469 16-3.230469v75.230469h16v-96c0-13.464844-14.054688-24-32-24zm0 32c-9.769531 0-16-4.734375-16-8s6.230469-8 16-8 16 4.734375 16 8-6.230469 8-16 8zm0 0"/><path d="m352 152h80v16h-80zm0 0"/><path d="m352 184h80v16h-80zm0 0"/><path d="m272 288h80v16h-80zm0 0"/><path d="m272 320h80v16h-80zm0 0"/><path d="m80 48h32v-16h-48v64h16zm0 0"/><path d="m64 112h16v16h-16zm0 0"/></svg>